<?xml version="1.0" ?><svg data-name="Layer 1" id="Layer_1" viewBox="0 0 272 272" xmlns="http://www.w3.org/2000/svg"><defs><style>.cls-1{fill:#704220;}.cls-2{fill:#8bc24a;}.cls-3{fill:#f54337;}.cls-4{fill:#ffeb3c;}</style></defs><title/><polygon class="cls-1" points="96 264 176 264 192 200 80 200 96 264"/><polygon class="cls-1" points="80 216 192 216 200 184 72 184 80 216"/><rect class="cls-2" height="112" width="8" x="132" y="72"/><path class="cls-3" d="M181,48.78a21.07,21.07,0,0,0-11.94-19h0a21,21,0,0,0-9.14-2.08,21.48,21.48,0,0,0-2.85.19,21.09,21.09,0,0,0-42.11,0,21.48,21.48,0,0,0-2.85-.19A21.09,21.09,0,0,0,101.8,67.2a21.12,21.12,0,0,0-.31,18.8A21.09,21.09,0,0,0,136,91.24a21.09,21.09,0,0,0,34.2-24A21.09,21.09,0,0,0,181,48.78ZM136,62.57a21.27,21.27,0,0,0-5.18-4.08,20.92,20.92,0,0,0,2.33-8.5,20.41,20.41,0,0,0,5.7,0,20.92,20.92,0,0,0,2.33,8.5A21.27,21.27,0,0,0,136,62.57Z"/><circle class="cls-4" cx="136" cy="56" r="15"/><ellipse class="cls-2" cx="166.57" cy="122.71" rx="32" ry="16" transform="translate(-39.04 99.73) rotate(-30)"/></svg>